<svg width="141" height="140" viewBox="0 0 141 140" fill="none" xmlns="http://www.w3.org/2000/svg">
<path d="M0.0896062 94.53C0.197488 95.1451 0.466169 95.7207 0.868354 96.1984C1.27054 96.6761 1.79192 97.0389 2.37961 97.25C2.96564 97.4617 3.59677 97.5168 4.21061 97.4098C4.82445 97.3028 5.39976 97.0375 5.87961 96.64C6.35509 96.2552 6.90224 95.9687 7.48933 95.797C8.07641 95.6254 8.69172 95.572 9.2996 95.64C11.9396 95.81 13.6796 97.74 16.9096 100.77C25.2396 108.57 32.2796 106.19 41.6996 104.88C43.3496 95.47 47.1996 90.08 53.3296 86.79C62.3296 81.96 74.9196 87.79 77.6496 95.51C69.6496 86.4 59.6496 86.41 54.3696 89.94C50.2796 92.69 37.5596 103.41 54.3696 127.83C47.9696 128.83 44.0296 131.16 41.3696 134.89C41.0335 135.373 40.8361 135.938 40.7987 136.525C40.7612 137.112 40.8852 137.698 41.1573 138.219C41.4293 138.741 41.839 139.178 42.3419 139.483C42.8447 139.788 43.4215 139.95 44.0096 139.95H85.1896C109.48 139.95 125.66 109.95 125.66 91.13C125.66 58.06 107.5 48.99 107.5 36.13C107.5 21.48 117.8 17.9 123.25 17.9C128.423 17.9519 133.371 20.0223 137.04 23.67C137.389 24.0099 137.839 24.2278 138.322 24.2911C138.805 24.3544 139.296 24.2598 139.721 24.0214C140.146 23.783 140.483 23.4136 140.681 22.9682C140.879 22.5228 140.927 22.0253 140.82 21.55C137.59 7.55003 126.44 -0.0199605 108.57 3.95284e-05C91.9296 3.95284e-05 76.2196 16 76.2196 35.74C76.2196 56.35 102.02 63.62 102.02 82.25C95.7396 66.99 82.2496 58.62 60.8596 57.52C38.8596 56.39 29.9196 43.24 32.9396 26.02C32.9712 25.8286 32.9464 25.6322 32.8682 25.4546C32.7901 25.2771 32.662 25.126 32.4996 25.02C32.3353 24.9104 32.1422 24.8518 31.9446 24.8518C31.7471 24.8518 31.554 24.9104 31.3896 25.02C22.6896 30.59 19.7096 36.02 18.3196 44.93C6.31962 54.36 1.66962 62.41 1.56962 77.58C9.86962 83.66 17.7996 84.16 26.9396 80.8C25.0896 83.98 22.7996 88.9 18.3196 87.56C12.0496 85.68 5.13962 85.89 2.31962 88.56C1.4548 89.2704 0.793075 90.1966 0.401465 91.245C0.00985536 92.2934 -0.0977437 93.4267 0.0896062 94.53V94.53ZM15.0896 63.7001C14.7383 63.8317 14.3571 63.8619 13.9895 63.7873C13.6219 63.7126 13.2827 63.5361 13.0106 63.2778C12.7385 63.0195 12.5446 62.6899 12.4509 62.3266C12.3572 61.9634 12.3676 61.5811 12.4809 61.2235C12.5941 60.8659 12.8057 60.5473 13.0914 60.3042C13.3771 60.0611 13.7254 59.9032 14.0965 59.8486C14.4676 59.794 14.8467 59.8449 15.1903 59.9955C15.5338 60.146 15.8282 60.3902 16.0396 60.7001C16.289 61.2252 16.3274 61.8259 16.1469 62.3785C15.9664 62.931 15.5808 63.3933 15.0696 63.67L15.0896 63.7001Z" fill="#D96008"/>
</svg>
